<svg width="16" height="16" viewBox="0 0 16 16" fill="none" xmlns="http://www.w3.org/2000/svg">
<path d="M11.778 1.32788V11.1279H10.459L12.832 14.9279L15.207 11.1279H13.888V1.32788H11.778Z" fill="#3670D2"/>
<path d="M1.55401 5.85587C1.49742 5.88671 1.43517 5.90576 1.37101 5.91187C1.34469 5.90907 1.31925 5.90077 1.29633 5.8875C1.27342 5.87424 1.25355 5.85631 1.23801 5.83487L0.838014 5.33487C0.819045 5.31852 0.804849 5.29733 0.796928 5.27357C0.789007 5.24981 0.787654 5.22434 0.793014 5.19987C0.801228 5.17684 0.814462 5.15591 0.831757 5.13862C0.849052 5.12132 0.869976 5.10809 0.893014 5.09987C1.65323 4.76512 2.3436 4.29017 2.92801 3.69987C3.39596 3.22982 3.70986 2.62854 3.82801 1.97587C3.84601 1.87587 3.80301 1.82587 3.70001 1.82587H1.31501C1.2671 1.83244 1.21843 1.82143 1.17801 1.79487C1.15818 1.76181 1.14942 1.72327 1.15301 1.68487V1.15087C1.15035 1.13062 1.15191 1.11004 1.15759 1.09042C1.16327 1.0708 1.17294 1.05257 1.18601 1.03687C1.22575 1.01636 1.27043 1.00735 1.31501 1.01087H4.42601C4.62667 0.986146 4.82925 1.03831 4.99301 1.15687C5.04251 1.22087 5.0782 1.29443 5.09783 1.37292C5.11745 1.45141 5.12058 1.53312 5.10701 1.61287C5.07302 2.04288 4.96793 2.46427 4.79601 2.85987C4.61463 3.27526 4.37266 3.66146 4.07801 4.00587C3.75663 4.38308 3.39252 4.72168 2.99301 5.01487C2.54468 5.34405 2.06344 5.62589 1.55701 5.85587M8.29301 3.86787H7.22901V7.18787C7.23191 7.20792 7.23075 7.22834 7.2256 7.24792C7.22044 7.26751 7.2114 7.28586 7.19901 7.30187C7.16117 7.32257 7.11792 7.33129 7.07501 7.32687H6.21101C6.16556 7.33064 6.11994 7.322 6.07901 7.30187C6.05401 7.28587 6.04001 7.24687 6.04001 7.18787V0.629874C6.03757 0.609924 6.03983 0.589678 6.0466 0.570754C6.05337 0.551829 6.06447 0.534749 6.07901 0.520874C6.11945 0.499162 6.16525 0.489448 6.21101 0.492874H7.07501C7.11818 0.488174 7.16171 0.497652 7.19901 0.519874C7.22188 0.550998 7.23255 0.589418 7.22901 0.627874V3.05687H8.29301C8.33515 3.05578 8.37714 3.06221 8.41701 3.07587C8.44801 3.08687 8.46401 3.12687 8.46401 3.18987V3.73087C8.4666 3.75231 8.46364 3.77405 8.45541 3.79402C8.44718 3.81398 8.43396 3.83149 8.41701 3.84487C8.37812 3.8623 8.33553 3.86985 8.29301 3.86687V3.86787Z" fill="#3670D2"/>
<path d="M5.56309 13.2579C5.27843 13.3146 4.96976 13.3633 4.63709 13.4039C4.30409 13.4439 3.96909 13.4759 3.63709 13.5039C3.30509 13.5319 2.98409 13.5419 2.68009 13.5459C2.37609 13.5499 2.11009 13.5459 1.88909 13.5309C1.71295 13.5336 1.53964 13.4864 1.38909 13.3949C1.3361 13.3455 1.29532 13.2845 1.26998 13.2166C1.24464 13.1488 1.23544 13.076 1.24309 13.0039V9.24893C1.24309 9.14893 1.29709 9.09893 1.40509 9.09893H2.24709C2.36709 9.09893 2.42709 9.14793 2.42709 9.24893V12.5249C2.42709 12.6249 2.49209 12.6829 2.62709 12.6879C2.82209 12.6969 3.03609 12.6969 3.27309 12.6879C3.51009 12.6789 3.75209 12.6629 3.99909 12.6409C4.24609 12.6189 4.49009 12.5929 4.72909 12.5639C4.96809 12.5349 5.19209 12.4989 5.39609 12.4639C5.46409 12.4499 5.51009 12.4529 5.52909 12.4709C5.54802 12.49 5.56387 12.512 5.57609 12.5359L5.70509 13.1269C5.71209 13.1969 5.66509 13.2409 5.56809 13.2609M8.29409 12.0609H7.22909V15.3719C7.23199 15.392 7.23083 15.4124 7.22568 15.432C7.22052 15.4516 7.21148 15.4699 7.19909 15.4859C7.16125 15.5066 7.11801 15.5153 7.07509 15.5109H6.21109C6.16562 15.5152 6.11985 15.5066 6.07909 15.4859C6.05409 15.4699 6.04009 15.4319 6.04009 15.3719V8.80693C6.0374 8.78727 6.03955 8.76725 6.04634 8.7486C6.05314 8.72995 6.06438 8.71325 6.07909 8.69993C6.11915 8.67719 6.16526 8.66741 6.21109 8.67193H7.07509C7.11841 8.66691 7.16214 8.67679 7.19909 8.69993C7.22233 8.73049 7.23306 8.76875 7.22909 8.80693V11.2419H8.28909C8.33114 11.2411 8.37303 11.2471 8.41309 11.2599C8.44409 11.2729 8.46009 11.3109 8.46009 11.3739V11.9149C8.46288 11.9364 8.46001 11.9582 8.45177 11.9782C8.44352 11.9982 8.43019 12.0157 8.41309 12.0289C8.37446 12.0474 8.33186 12.056 8.28909 12.0539" fill="#3670D2"/>
</svg>
