<svg width="16" height="14" viewBox="0 0 16 14" fill="none" xmlns="http://www.w3.org/2000/svg">
<path d="M8.60588 13.7951C7.56593 13.7989 6.53884 13.5651 5.60299 13.1116C4.66714 12.658 3.84725 11.9967 3.20588 11.1781C2.54543 10.3437 2.09513 9.36283 1.89288 8.31808L0.556885 8.32008L2.75688 4.52708L4.95688 8.31708H3.64088C3.81585 8.97856 4.12492 9.59702 4.54888 10.1341C5.39151 11.2013 6.62163 11.8925 7.97144 12.0572C9.32125 12.2218 10.6814 11.8465 11.7559 11.0131C12.2865 10.6027 12.7307 10.0913 13.0627 9.50844C13.3947 8.92555 13.6079 8.28269 13.6902 7.61695C13.7725 6.95121 13.7221 6.27576 13.542 5.62958C13.3619 4.9834 13.0557 4.37928 12.6409 3.85208C12.204 3.29906 11.6583 2.84156 11.0375 2.50787C10.4168 2.17418 9.73415 1.9714 9.03189 1.91208V0.205078C9.99497 0.265342 10.9345 0.528056 11.7892 0.976067C12.6439 1.42408 13.3944 2.04731 13.9919 2.80508C14.545 3.50836 14.9534 4.31418 15.1935 5.17607C15.4337 6.03795 15.5009 6.93885 15.3912 7.82683C15.2815 8.7148 14.9971 9.57227 14.5544 10.3498C14.1117 11.1273 13.5195 11.8095 12.8119 12.3571C11.6106 13.294 10.1294 13.8004 8.60588 13.7951Z" fill="#3670D2"/>
<path d="M6.99878 3.20508V8.20508H11.9988V7.00508H8.19878V3.20508H6.99878Z" fill="#3670D2"/>
</svg>
