<svg width="16" height="16" viewBox="0 0 16 16" fill="none" xmlns="http://www.w3.org/2000/svg">
<path d="M1.55108 5.85587C1.49449 5.88671 1.43224 5.90576 1.36808 5.91187C1.34176 5.90907 1.31632 5.90077 1.2934 5.8875C1.27049 5.87424 1.25062 5.85631 1.23508 5.83487L0.835084 5.33487C0.816115 5.31851 0.801919 5.29733 0.793998 5.27357C0.786077 5.24981 0.784725 5.22434 0.790084 5.19987C0.798299 5.17684 0.811532 5.15591 0.828827 5.13862C0.846122 5.12132 0.867046 5.10809 0.890084 5.09987C1.6503 4.76512 2.34067 4.29017 2.92508 3.69987C3.39303 3.22982 3.70693 2.62854 3.82508 1.97587C3.84308 1.87587 3.80008 1.82587 3.69708 1.82587H1.31208C1.26417 1.83244 1.2155 1.82143 1.17508 1.79487C1.15525 1.76181 1.14649 1.72327 1.15008 1.68487V1.15087C1.14742 1.13062 1.14898 1.11004 1.15466 1.09042C1.16034 1.0708 1.17001 1.05257 1.18308 1.03687C1.22282 1.01636 1.2675 1.00735 1.31208 1.01087H4.42308C4.62374 0.986146 4.82632 1.03831 4.99008 1.15687C5.03958 1.22087 5.07527 1.29443 5.0949 1.37292C5.11452 1.45141 5.11765 1.53312 5.10408 1.61287C5.07009 2.04288 4.965 2.46427 4.79308 2.85987C4.6117 3.27526 4.36973 3.66146 4.07508 4.00587C3.7537 4.38308 3.38959 4.72168 2.99008 5.01487C2.54175 5.34405 2.06051 5.62589 1.55408 5.85587M8.29008 3.86787H7.22608V7.18787C7.22898 7.20792 7.22782 7.22834 7.22267 7.24792C7.21751 7.26751 7.20847 7.28586 7.19608 7.30187C7.15824 7.32257 7.115 7.33129 7.07208 7.32687H6.20808C6.16263 7.33064 6.11701 7.322 6.07608 7.30187C6.05108 7.28587 6.03708 7.24687 6.03708 7.18787V0.629874C6.03464 0.609924 6.0369 0.589678 6.04367 0.570754C6.05044 0.551829 6.06154 0.534749 6.07608 0.520874C6.11652 0.499162 6.16232 0.489448 6.20808 0.492874H7.07208C7.11525 0.488174 7.15878 0.497652 7.19608 0.519874C7.21895 0.550998 7.22962 0.589418 7.22608 0.627874V3.05687H8.29008C8.33222 3.05577 8.37421 3.06221 8.41408 3.07587C8.44508 3.08687 8.46108 3.12687 8.46108 3.18987V3.73087C8.46367 3.75231 8.46071 3.77405 8.45248 3.79402C8.44425 3.81398 8.43103 3.83149 8.41408 3.84487C8.37519 3.8623 8.3326 3.86985 8.29008 3.86687V3.86787Z" fill="#8391AC"/>
<path d="M5.56016 13.2579C5.2755 13.3146 4.96683 13.3633 4.63416 13.4039C4.30116 13.4439 3.96616 13.4759 3.63416 13.5039C3.30216 13.5319 2.98116 13.5419 2.67716 13.5459C2.37316 13.5499 2.10716 13.5459 1.88616 13.5309C1.71002 13.5336 1.53671 13.4864 1.38616 13.3949C1.33317 13.3455 1.29239 13.2845 1.26705 13.2166C1.24171 13.1488 1.23251 13.076 1.24016 13.0039V9.24893C1.24016 9.14893 1.29416 9.09893 1.40216 9.09893H2.24416C2.36416 9.09893 2.42416 9.14793 2.42416 9.24893V12.5249C2.42416 12.6249 2.48916 12.6829 2.62416 12.6879C2.81916 12.6969 3.03316 12.6969 3.27016 12.6879C3.50716 12.6789 3.74916 12.6629 3.99616 12.6409C4.24316 12.6189 4.48716 12.5929 4.72616 12.5639C4.96516 12.5349 5.18916 12.4989 5.39316 12.4639C5.46116 12.4499 5.50716 12.4529 5.52616 12.4709C5.54509 12.49 5.56094 12.512 5.57316 12.5359L5.70216 13.1269C5.70916 13.1969 5.66216 13.2409 5.56516 13.2609M8.29116 12.0609H7.22616V15.3719C7.22906 15.392 7.2279 15.4124 7.22275 15.432C7.21759 15.4516 7.20855 15.4699 7.19616 15.4859C7.15832 15.5066 7.11508 15.5153 7.07216 15.5109H6.20816C6.16269 15.5152 6.11692 15.5066 6.07616 15.4859C6.05116 15.4699 6.03716 15.4319 6.03716 15.3719V8.80693C6.03447 8.78727 6.03662 8.76725 6.04341 8.7486C6.05021 8.72995 6.06145 8.71325 6.07616 8.69993C6.11622 8.67719 6.16233 8.66741 6.20816 8.67193H7.07216C7.11548 8.66691 7.15921 8.67679 7.19616 8.69993C7.2194 8.73049 7.23013 8.76875 7.22616 8.80693V11.2419H8.28616C8.32821 11.2411 8.3701 11.2471 8.41016 11.2599C8.44116 11.2729 8.45716 11.3109 8.45716 11.3739V11.9149C8.45995 11.9364 8.45708 11.9582 8.44884 11.9782C8.44059 11.9982 8.42726 12.0157 8.41016 12.0289C8.37153 12.0474 8.32893 12.056 8.28616 12.0539" fill="#8391AC"/>
<path d="M11.7809 1.2019V11.0019H10.4619L12.8349 14.8019L15.2099 11.0019H13.8909V1.2019H11.7809Z" fill="#8391AC"/>
</svg>
