<svg width="17" height="16" viewBox="0 0 17 16" fill="none" xmlns="http://www.w3.org/2000/svg">
<path d="M7.33918 1.29415C7.43006 1.06025 7.58949 0.859259 7.79658 0.717544C8.00367 0.575829 8.24875 0.5 8.49969 0.5C8.75062 0.5 8.9957 0.575829 9.20279 0.717544C9.40988 0.859259 9.56931 1.06025 9.66018 1.29415L10.7842 4.18615C10.8692 4.40465 11.0141 4.59472 11.2023 4.73448C11.3906 4.87424 11.6144 4.95801 11.8482 4.97615L14.9202 5.21515C15.1638 5.23398 15.3964 5.32405 15.5892 5.47416C15.782 5.62427 15.9263 5.82777 16.0042 6.05932C16.0821 6.29087 16.0902 6.54024 16.0275 6.77635C15.9647 7.01246 15.8338 7.22488 15.6512 7.38715L13.2092 9.55915C13.0418 9.70801 12.9177 9.89926 12.85 10.1127C12.7822 10.3262 12.7733 10.554 12.8242 10.7722L13.5692 13.9722C13.6256 14.2141 13.6084 14.4675 13.5196 14.6996C13.4309 14.9317 13.2748 15.1319 13.0713 15.2745C12.8678 15.4171 12.6263 15.4956 12.3778 15.4998C12.1294 15.504 11.8854 15.4338 11.6772 15.2982L9.17719 13.6722C8.97502 13.5405 8.73895 13.4704 8.49768 13.4704C8.25642 13.4704 8.02035 13.5405 7.81818 13.6722L5.31818 15.2982C5.10998 15.4338 4.86596 15.504 4.61752 15.4998C4.36908 15.4956 4.12758 15.4171 3.9241 15.2745C3.72062 15.1319 3.56446 14.9317 3.47573 14.6996C3.387 14.4675 3.36974 14.2141 3.42618 13.9722L4.17118 10.7722C4.22205 10.554 4.21314 10.3262 4.14538 10.1127C4.07763 9.89926 3.95353 9.70801 3.78618 9.55915L1.34818 7.38615C1.16588 7.22381 1.03533 7.01146 0.972752 6.77551C0.910178 6.53956 0.918347 6.29042 0.996243 6.05908C1.07414 5.82774 1.21833 5.6244 1.41087 5.47435C1.60341 5.3243 1.83582 5.23416 2.07918 5.21515L5.15119 4.97615C5.38493 4.95801 5.6088 4.87424 5.79703 4.73448C5.98526 4.59472 6.13021 4.40465 6.21518 4.18615L7.33918 1.29415Z" fill="#FFCC00"/>
</svg>
