<svg width="15" height="16" viewBox="0 0 15 16" fill="none" xmlns="http://www.w3.org/2000/svg">
<path d="M1.76471 1.38235C1.27818 1.38235 0.882353 1.77818 0.882353 2.26471V13.7353C0.882353 14.2218 1.27818 14.6176 1.76471 14.6176H13.2353C13.7218 14.6176 14.1176 14.2218 14.1176 13.7353V2.26471C14.1176 1.77818 13.7218 1.38235 13.2353 1.38235H1.76471ZM1.76471 0.5H13.2353C14.2099 0.5 15 1.29008 15 2.26471V13.7353C15 14.7099 14.2099 15.5 13.2353 15.5H1.76471C0.790085 15.5 0 14.7099 0 13.7353V2.26471C0 1.29008 0.790085 0.5 1.76471 0.5Z" fill="#61708B"/>
<path d="M7.89671 4.1177C7.89671 3.82531 7.65969 3.58829 7.3673 3.58829C7.07492 3.58829 6.83789 3.82531 6.83789 4.1177V11.8824C6.83789 12.1748 7.07492 12.4118 7.3673 12.4118C7.65969 12.4118 7.89671 12.1748 7.89671 11.8824V4.1177Z" fill="#61708B"/>
<path d="M11.3827 8.39711C11.6751 8.39711 11.9121 8.16009 11.9121 7.8677C11.9121 7.57531 11.6751 7.33829 11.3827 7.33829L3.61799 7.33829C3.32561 7.33829 3.08858 7.57531 3.08858 7.8677C3.08858 8.16009 3.32561 8.39711 3.61799 8.39711H11.3827Z" fill="#61708B"/>
</svg>
