<svg width="12" height="13" viewBox="0 0 12 13" fill="none" xmlns="http://www.w3.org/2000/svg">
<path d="M1.691 5.11902H9.983C10.0737 5.11902 10.1636 5.13689 10.2474 5.17162C10.3313 5.20634 10.4074 5.25724 10.4716 5.32141C10.5358 5.38557 10.5867 5.46175 10.6214 5.54558C10.6561 5.62942 10.674 5.71928 10.674 5.81002V12.029C10.674 12.1198 10.6561 12.2096 10.6214 12.2935C10.5867 12.3773 10.5358 12.4535 10.4716 12.5176C10.4074 12.5818 10.3313 12.6327 10.2474 12.6674C10.1636 12.7021 10.0737 12.72 9.983 12.72H1.691C1.60026 12.72 1.5104 12.7021 1.42657 12.6674C1.34273 12.6327 1.26655 12.5818 1.20239 12.5176C1.13822 12.4535 1.08733 12.3773 1.0526 12.2935C1.01787 12.2096 1 12.1198 1 12.029V5.81002C1 5.62675 1.0728 5.451 1.20239 5.32141C1.33198 5.19182 1.50774 5.11902 1.691 5.11902Z" fill="white"/>
<path d="M1.4679 5.53301H10.2069C10.2876 5.52948 10.3665 5.55814 10.4261 5.61271C10.4857 5.66727 10.5213 5.74327 10.5249 5.82401V11.805C10.5213 11.8857 10.4857 11.9617 10.4261 12.0163C10.3665 12.0709 10.2876 12.0995 10.2069 12.096H1.4679C1.38716 12.0995 1.30831 12.0709 1.24869 12.0163C1.18907 11.9617 1.15354 11.8857 1.1499 11.805V5.82401C1.15354 5.74327 1.18907 5.66727 1.24869 5.61271C1.30831 5.55814 1.38716 5.52948 1.4679 5.53301Z" fill="#FF2840" stroke="#FF2840" stroke-width="1.2"/>
<path d="M5.83704 1.28003C6.14568 1.27977 6.45135 1.34033 6.73657 1.45826C7.0218 1.57619 7.28099 1.74918 7.49932 1.96733C7.71766 2.18548 7.89087 2.44452 8.00904 2.72964C8.12721 3.01477 8.18804 3.32039 8.18804 3.62903V5.46703H3.48804V3.62903C3.48804 3.00604 3.73552 2.40856 4.17604 1.96804C4.61657 1.52751 5.21404 1.28003 5.83704 1.28003V1.28003Z" stroke="#FF2840" stroke-width="1.5"/>
<path d="M6.98491 8.03403C6.98547 7.82865 6.93088 7.62689 6.82683 7.44982C6.72278 7.27275 6.5731 7.12687 6.39342 7.0274C6.21373 6.92794 6.01064 6.87854 5.80535 6.88437C5.60005 6.89021 5.40009 6.95105 5.22634 7.06056C5.05259 7.17007 4.91144 7.32421 4.81761 7.50691C4.72378 7.6896 4.68073 7.89413 4.69295 8.09914C4.70517 8.30416 4.77221 8.50213 4.88707 8.67238C5.00193 8.84264 5.16039 8.97893 5.34591 9.06703V10.952H6.32891V9.06703C6.52492 8.97472 6.69065 8.8286 6.8068 8.64571C6.92294 8.46282 6.98471 8.25068 6.98491 8.03403Z" fill="white"/>
</svg>
