<svg width="10" height="14" viewBox="0 0 10 14" fill="none" xmlns="http://www.w3.org/2000/svg">
<path d="M8.98301 1.54736H7.29501L7.19501 1.23036C7.17303 1.05845 7.08805 0.900794 6.95652 0.787925C6.82499 0.675055 6.65627 0.614993 6.48301 0.619363H3.58901C3.41677 0.616492 3.24952 0.677233 3.11926 0.789962C2.989 0.902692 2.90489 1.05949 2.88301 1.23036L2.79801 1.54736H1.09801C0.964585 1.54749 0.832495 1.5739 0.709278 1.62508C0.586061 1.67626 0.474132 1.75121 0.379881 1.84565C0.285629 1.94009 0.210901 2.05216 0.159964 2.17548C0.109026 2.2988 0.0828769 2.43094 0.0830083 2.56436V12.3644C0.0828769 12.4979 0.10906 12.6301 0.160059 12.7535C0.211059 12.8769 0.285877 12.989 0.380234 13.0834C0.474591 13.1779 0.586639 13.2528 0.709971 13.3039C0.833303 13.3551 0.965501 13.3814 1.09901 13.3814H8.98301C9.25273 13.3814 9.51141 13.2742 9.70214 13.0835C9.89286 12.8928 10 12.6341 10 12.3644V2.56436C10 2.43081 9.9737 2.29856 9.92259 2.17517C9.87148 2.05179 9.79657 1.93967 9.70214 1.84524C9.6077 1.7508 9.49559 1.67589 9.3722 1.62478C9.24881 1.57367 9.11656 1.54736 8.98301 1.54736ZM8.98301 12.3614H1.09901V2.56136H2.50601V2.76136C2.50601 3.17936 2.96101 3.51836 3.52001 3.51836H6.56401C7.12401 3.51836 7.57801 3.17936 7.57801 2.76136V2.56136H8.98301V12.3614Z" fill="#61708B"/>
</svg>
