<svg width="18" height="13" viewBox="0 0 18 13" fill="none" xmlns="http://www.w3.org/2000/svg">
<path d="M13 4.00002C12.953 4.00002 12.909 4.01202 12.863 4.01402C12.6468 3.15325 12.1493 2.38935 11.4494 1.84356C10.7496 1.29776 9.88751 1.00134 9 1.00134C8.11249 1.00134 7.2504 1.29776 6.55056 1.84356C5.85072 2.38935 5.35321 3.15325 5.137 4.01402C5.091 4.01202 5.047 4.00002 5 4.00002C3.93913 4.00002 2.92172 4.42145 2.17157 5.1716C1.42143 5.92174 1 6.93916 1 8.00002C1 9.06089 1.42143 10.0783 2.17157 10.8285C2.92172 11.5786 3.93913 12 5 12H13C14.0609 12 15.0783 11.5786 15.8284 10.8285C16.5786 10.0783 17 9.06089 17 8.00002C17 6.93916 16.5786 5.92174 15.8284 5.1716C15.0783 4.42145 14.0609 4.00002 13 4.00002Z" stroke="#CBDDFF" stroke-width="1.2"/>
</svg>
