<svg width="16" height="14" viewBox="0 0 16 14" fill="none" xmlns="http://www.w3.org/2000/svg">
<path d="M7.39412 13.7951C8.43407 13.7989 9.46116 13.5652 10.397 13.1116C11.3329 12.6581 12.1528 11.9968 12.7941 11.1781C13.4546 10.3437 13.9049 9.36287 14.1071 8.31812L15.4431 8.32012L13.2431 4.52712L11.0431 8.31712H12.3591C12.1841 8.9786 11.8751 9.59707 11.4511 10.1341C10.6085 11.2017 9.37815 11.8931 8.0281 12.0577C6.67805 12.2223 5.31763 11.8469 4.24312 11.0131C3.71247 10.6028 3.26834 10.0914 2.93634 9.50848C2.60435 8.92559 2.39106 8.28273 2.30878 7.61699C2.22651 6.95125 2.27687 6.2758 2.45697 5.62962C2.63707 4.98345 2.94334 4.37933 3.35812 3.85212C3.79509 3.29929 4.34083 2.84197 4.96159 2.50846C5.58235 2.17495 6.26493 1.97232 6.96712 1.91312V0.20512C6.00404 0.265447 5.06451 0.528187 4.20986 0.976193C3.3552 1.4242 2.60462 2.0474 2.00712 2.80512C1.45402 3.50841 1.04562 4.31422 0.805451 5.17611C0.565288 6.03799 0.498117 6.9389 0.607812 7.82687C0.717506 8.71484 1.0019 9.57231 1.44458 10.3498C1.88727 11.1274 2.4795 11.8096 3.18712 12.3571C4.38871 13.2943 5.87027 13.8007 7.39412 13.7951Z" fill="#3670D2"/>
<path d="M8.99902 3.20508V8.20508H3.99902V7.00508H7.79902V3.20508H8.99902Z" fill="#3670D2"/>
</svg>
