<svg width="16" height="16" viewBox="0 0 16 16" fill="none" xmlns="http://www.w3.org/2000/svg">
<path d="M5.68411 5.18404C5.34745 5.2267 4.98854 5.26373 4.60721 5.29506C4.22588 5.32639 3.8281 5.35004 3.4141 5.36604C3.00076 5.38204 2.58044 5.39139 2.15311 5.39406C1.72578 5.39673 1.30422 5.39338 0.888216 5.38405C0.808216 5.38405 0.759197 5.37304 0.743197 5.34804C0.722556 5.31414 0.71301 5.27463 0.716097 5.23506V4.71004C0.714035 4.6909 0.716164 4.67156 0.722201 4.65328C0.728237 4.63499 0.738076 4.61817 0.751131 4.60402C0.792625 4.58022 0.840638 4.57009 0.888216 4.57503C1.01322 4.57503 1.13716 4.58302 1.26016 4.58302H1.6232V1.83608H1.00711C0.881113 1.83608 0.817171 1.78403 0.817171 1.67903V1.17903C0.817171 1.07903 0.879113 1.02205 1.00711 1.02205H5.40116C5.52116 1.02205 5.58121 1.07503 5.58121 1.17903V1.68605C5.58121 1.78105 5.52116 1.83504 5.40116 1.83504H4.87015V4.47005C5.10415 4.45705 5.33321 4.43502 5.55521 4.40602C5.57034 4.39962 5.58664 4.39667 5.60306 4.39729C5.61948 4.39792 5.63558 4.40215 5.65018 4.40969C5.66478 4.41722 5.67751 4.42791 5.68753 4.44094C5.69755 4.45396 5.70462 4.46902 5.70816 4.48506L5.80313 5.00502C5.81413 5.07102 5.81119 5.11405 5.79019 5.13405C5.76026 5.16035 5.72344 5.17766 5.68411 5.18404V5.18404ZM3.71817 4.55007V1.83907H2.77616V4.57503L3.25113 4.56404C3.40813 4.56404 3.5631 4.56404 3.7161 4.55104L3.71817 4.55007ZM8.35916 3.86604H7.3002V7.19106C7.3027 7.21053 7.30114 7.23032 7.29581 7.24922C7.29048 7.26812 7.2815 7.28573 7.2692 7.30104C7.2318 7.32197 7.18875 7.33073 7.14615 7.32607H6.28214C6.23636 7.32997 6.19044 7.3213 6.1492 7.30104C6.1232 7.28504 6.11112 7.24706 6.11112 7.19106V0.630022C6.10871 0.61031 6.11087 0.590344 6.11746 0.571611C6.12406 0.552879 6.13498 0.535913 6.1492 0.522051C6.18998 0.500334 6.23612 0.490975 6.28214 0.495073H7.14615C7.18932 0.490373 7.23287 0.499828 7.27017 0.522051C7.29366 0.552868 7.30443 0.591506 7.3002 0.630022V3.05806H8.35916C8.40165 3.05659 8.44403 3.06302 8.48416 3.07704C8.51516 3.08804 8.53116 3.12805 8.53116 3.19405V3.73604C8.53116 3.79304 8.51519 3.83103 8.48319 3.84603C8.44413 3.86281 8.40151 3.86969 8.35916 3.86604V3.86604Z" fill="#3670D2"/>
<path d="M5.55115 10.9369H1.03711C0.912109 10.9369 0.847168 10.885 0.847168 10.78V10.293C0.847168 10.193 0.910109 10.1429 1.03711 10.1429H5.55115C5.67615 10.1429 5.74121 10.192 5.74121 10.293V10.793C5.74121 10.888 5.67615 10.9379 5.55115 10.9379V10.9369ZM3.38013 14.1069C3.12954 14.1089 2.8801 14.0731 2.64014 14.0009C2.42237 13.9358 2.21722 13.8344 2.0332 13.7009C1.86441 13.5772 1.72333 13.4194 1.61914 13.2379C1.51489 13.0532 1.4618 12.844 1.46521 12.632C1.46146 12.4217 1.5146 12.2144 1.61914 12.0319C1.72368 11.8529 1.8648 11.6979 2.0332 11.577C2.21874 11.4447 2.42575 11.3455 2.64514 11.2839C2.88711 11.2153 3.13766 11.1817 3.38916 11.184C3.63735 11.1821 3.88453 11.2157 4.12317 11.2839C4.34262 11.3454 4.54965 11.4445 4.73511 11.577C4.90487 11.6979 5.04763 11.8528 5.15417 12.0319C5.26087 12.2136 5.31548 12.4213 5.31213 12.632C5.31515 12.8421 5.26205 13.0492 5.1582 13.2319C5.05339 13.4151 4.91083 13.5739 4.74011 13.6979C4.5532 13.8326 4.34454 13.9341 4.12317 13.9979C3.88214 14.07 3.63168 14.1057 3.38013 14.1039V14.1069ZM4.50012 9.80694H2.1571C2.11267 9.80842 2.06859 9.79952 2.0282 9.78094C1.9952 9.76494 1.97815 9.72292 1.97815 9.65692V9.15692C1.97485 9.13397 1.97778 9.11056 1.98657 9.08911C1.99536 9.06766 2.00974 9.049 2.0282 9.03497C2.06827 9.01526 2.11247 9.00564 2.1571 9.00696H4.50012C4.62012 9.00696 4.67822 9.05894 4.67822 9.16394V9.64795C4.67822 9.75395 4.61912 9.80792 4.50012 9.80792V9.80694ZM3.38818 12.0159C3.27594 12.0143 3.16419 12.0322 3.05811 12.069C2.96522 12.1004 2.87959 12.15 2.80615 12.215C2.73992 12.2721 2.68618 12.3422 2.64819 12.421C2.61131 12.4913 2.59204 12.5695 2.59204 12.6489C2.59204 12.7283 2.61131 12.8066 2.64819 12.877C2.68604 12.9558 2.73943 13.0262 2.80518 13.0839C2.87943 13.1485 2.96478 13.199 3.05713 13.233C3.1624 13.2719 3.27388 13.2911 3.38611 13.2899C3.50098 13.2917 3.61524 13.2724 3.72314 13.233C3.81581 13.199 3.90159 13.1485 3.9762 13.0839C4.04147 13.0255 4.09504 12.9553 4.13416 12.877C4.17087 12.8066 4.19006 12.7283 4.19006 12.6489C4.19006 12.5695 4.17087 12.4913 4.13416 12.421C4.09512 12.3428 4.04153 12.2729 3.9762 12.215C3.90243 12.1499 3.81636 12.1003 3.72314 12.069C3.61474 12.0319 3.50067 12.0139 3.38611 12.0159H3.38818ZM8.36316 12.1219H7.3042V15.371C7.30695 15.3904 7.3057 15.4101 7.30054 15.429C7.29538 15.4479 7.2864 15.4656 7.27417 15.481C7.23662 15.5025 7.19319 15.5116 7.15015 15.507H6.28613C6.24025 15.5106 6.19431 15.5017 6.1532 15.481C6.1272 15.465 6.11511 15.428 6.11511 15.371V8.80993C6.11255 8.79037 6.11473 8.77049 6.12134 8.75189C6.12794 8.73329 6.13887 8.71651 6.1532 8.70294C6.19357 8.68002 6.23988 8.66991 6.28613 8.67395H7.15015C7.19325 8.6693 7.2367 8.67952 7.27319 8.70294C7.29691 8.73326 7.30772 8.77171 7.30322 8.80993V11.3099H8.36218C8.40416 11.3089 8.44605 11.3147 8.48621 11.327C8.51721 11.339 8.53418 11.3789 8.53418 11.4449V11.9869C8.53708 12.0079 8.5341 12.0293 8.52563 12.0487C8.51717 12.0681 8.50356 12.0848 8.48621 12.0969C8.44744 12.115 8.40491 12.1235 8.36218 12.1219H8.36316Z" fill="#3670D2"/>
<path d="M11.8561 14.9269V5.12593H10.5371L12.9101 1.32593L15.2851 5.12593H13.9661V14.9259L11.8561 14.9269Z" fill="#3670D2"/>
</svg>
