<svg width="4" height="16" viewBox="0 0 4 16" fill="none" xmlns="http://www.w3.org/2000/svg">
<path d="M3.96973 2.00024C3.96973 1.17182 3.29815 0.500244 2.46973 0.500244C1.6413 0.500244 0.969727 1.17182 0.969727 2.00024C0.969727 2.82867 1.6413 3.50024 2.46973 3.50024C3.29815 3.50024 3.96973 2.82867 3.96973 2.00024Z" fill="#8391AC"/>
<path d="M3.96973 8.00024C3.96973 7.17182 3.29815 6.50024 2.46973 6.50024C1.6413 6.50024 0.969727 7.17182 0.969727 8.00024C0.969727 8.82867 1.6413 9.50024 2.46973 9.50024C3.29815 9.50024 3.96973 8.82867 3.96973 8.00024Z" fill="#8391AC"/>
<path d="M3.96973 14.0002C3.96973 13.1718 3.29815 12.5002 2.46973 12.5002C1.6413 12.5002 0.969727 13.1718 0.969727 14.0002C0.969727 14.8287 1.6413 15.5002 2.46973 15.5002C3.29815 15.5002 3.96973 14.8287 3.96973 14.0002Z" fill="#8391AC"/>
</svg>
