<svg width="20" height="20" viewBox="0 0 20 20" fill="none" xmlns="http://www.w3.org/2000/svg">
<path d="M17 4.25H2V5.75H17V4.25Z" fill="#8391AC"/>
<path d="M17 9.25H2V10.75H17V9.25Z" fill="#8391AC"/>
<path d="M17 14.25H2V15.75H17V14.25Z" fill="#8391AC"/>
<path d="M13.25 7.25C14.4926 7.25 15.5 6.24264 15.5 5C15.5 3.75736 14.4926 2.75 13.25 2.75C12.0074 2.75 11 3.75736 11 5C11 6.24264 12.0074 7.25 13.25 7.25Z" fill="white"/>
<path d="M13.25 6.5C14.0784 6.5 14.75 5.82843 14.75 5C14.75 4.17157 14.0784 3.5 13.25 3.5C12.4216 3.5 11.75 4.17157 11.75 5C11.75 5.82843 12.4216 6.5 13.25 6.5Z" stroke="#8391AC" stroke-width="1.5"/>
<path d="M5.75 12.25C6.99264 12.25 8 11.2426 8 10C8 8.75736 6.99264 7.75 5.75 7.75C4.50736 7.75 3.5 8.75736 3.5 10C3.5 11.2426 4.50736 12.25 5.75 12.25Z" fill="white"/>
<path d="M5.75 11.5C6.57843 11.5 7.25 10.8284 7.25 10C7.25 9.17157 6.57843 8.5 5.75 8.5C4.92157 8.5 4.25 9.17157 4.25 10C4.25 10.8284 4.92157 11.5 5.75 11.5Z" stroke="#8391AC" stroke-width="1.5"/>
<path d="M11.25 17.25C12.4926 17.25 13.5 16.2426 13.5 15C13.5 13.7574 12.4926 12.75 11.25 12.75C10.0074 12.75 9 13.7574 9 15C9 16.2426 10.0074 17.25 11.25 17.25Z" fill="white"/>
<path d="M11.25 16.5C12.0784 16.5 12.75 15.8284 12.75 15C12.75 14.1716 12.0784 13.5 11.25 13.5C10.4216 13.5 9.75 14.1716 9.75 15C9.75 15.8284 10.4216 16.5 11.25 16.5Z" stroke="#8391AC" stroke-width="1.5"/>
</svg>
