<svg width="19" height="18" viewBox="0 0 19 18" fill="none" xmlns="http://www.w3.org/2000/svg">
<path d="M2.96973 0.000244141H16.9697C17.5002 0.000244141 18.0089 0.210958 18.3839 0.586031C18.759 0.961103 18.9697 1.46981 18.9697 2.00024V16.0002C18.9697 16.5307 18.759 17.0394 18.3839 17.4145C18.0089 17.7895 17.5002 18.0002 16.9697 18.0002H2.96973C2.43929 18.0002 1.93059 17.7895 1.55551 17.4145C1.18044 17.0394 0.969727 16.5307 0.969727 16.0002V2.00024C0.969727 1.46981 1.18044 0.961103 1.55551 0.586031C1.93059 0.210958 2.43929 0.000244141 2.96973 0.000244141V0.000244141Z" fill="#F5F6F8"/>
<path d="M15.2571 12.7271H10.7631V10.4671H9.15113V12.7271H4.68213V14.0471H15.2571V12.7271ZM5.03913 9.60012L5.63913 10.8571C6.48271 10.8085 7.30551 10.5763 8.0501 10.1768C8.79468 9.77728 9.44311 9.2201 9.95013 8.54412C10.4634 9.22124 11.1173 9.77902 11.8669 10.179C12.6165 10.579 13.4439 10.8117 14.2921 10.8611L14.8761 9.60012C12.2481 9.28712 10.9391 7.97912 10.8011 6.70012H14.3301V5.40012H10.7631V3.95312H9.15113V5.40012H5.59613V6.70012H9.12513C8.97913 7.97912 7.67213 9.28712 5.03913 9.60012Z" fill="#FCB424"/>
</svg>
