<svg width="19" height="19" viewBox="0 0 19 19" fill="none" xmlns="http://www.w3.org/2000/svg">
<path d="M2.49989 0.5H16.5001C17.0305 0.5 17.5392 0.710703 17.9142 1.08576C18.2893 1.46081 18.5 1.96949 18.5 2.49989V16.5001C18.5 17.0305 18.2893 17.5392 17.9142 17.9142C17.5392 18.2893 17.0305 18.5 16.5001 18.5H2.49989C1.96949 18.5 1.46081 18.2893 1.08576 17.9142C0.710703 17.5392 0.5 17.0305 0.5 16.5001L0.5 2.49989C0.5 1.96949 0.710703 1.46081 1.08576 1.08576C1.46081 0.710703 1.96949 0.5 2.49989 0.5V0.5Z" fill="#F5F6F8"/>
<path d="M7.79788 4.4126C6.10777 4.40692 4.85156 5.45281 4.85156 6.91555C4.85156 8.37828 6.10777 9.39765 7.79788 9.40428C8.15462 9.44029 8.51496 9.4038 8.85725 9.29702C9.19953 9.19023 9.5167 9.01536 9.78969 8.7829C10.0627 8.55044 10.2859 8.26519 10.4458 7.94429C10.6058 7.62339 10.6992 7.27347 10.7205 6.91555C10.7021 6.55602 10.6107 6.20401 10.4519 5.88094C10.2931 5.55786 10.0702 5.2705 9.79679 5.03633C9.52337 4.80217 9.20514 4.62611 8.86149 4.51888C8.51783 4.41165 8.15595 4.37549 7.79788 4.4126ZM6.34272 6.91555C6.3304 6.12734 6.95567 5.66502 7.79788 5.66502C7.97658 5.64251 8.15803 5.65789 8.3304 5.71016C8.50276 5.76242 8.66219 5.8504 8.7983 5.96837C8.93441 6.08634 9.04415 6.23165 9.12038 6.39485C9.19661 6.55804 9.23761 6.73546 9.24072 6.91555C9.23659 7.09531 9.1949 7.27222 9.11834 7.43491C9.04178 7.5976 8.93204 7.74249 8.79616 7.86025C8.66029 7.97802 8.50128 8.06606 8.32936 8.11873C8.15744 8.1714 7.9764 8.18752 7.79788 8.16607C6.94998 8.15944 6.3304 7.69618 6.34272 6.91555ZM6.49904 11.2081H12.3159V11.8817H6.52272V14.9132H14.1481V13.7091H8.02619V12.9995H13.8478V10.0295H6.49904V11.2081ZM12.3083 9.56818H13.8478V4.08386H12.3083V9.56818Z" fill="#43C3F9"/>
</svg>
