<svg width="19" height="18" viewBox="0 0 19 18" fill="none" xmlns="http://www.w3.org/2000/svg">
<path d="M2.96973 0.000244141H16.9697C17.5002 0.000244141 18.0089 0.210958 18.3839 0.586031C18.759 0.961103 18.9697 1.46981 18.9697 2.00024V16.0002C18.9697 16.5307 18.759 17.0394 18.3839 17.4145C18.0089 17.7895 17.5002 18.0002 16.9697 18.0002H2.96973C2.43929 18.0002 1.93059 17.7895 1.55551 17.4145C1.18044 17.0394 0.969727 16.5307 0.969727 16.0002V2.00024C0.969727 1.46981 1.18044 0.961103 1.55551 0.586031C1.93059 0.210958 2.43929 0.000244141 2.96973 0.000244141V0.000244141Z" fill="#F5F6F8"/>
<path d="M8.96071 6.37334V5.66234H11.2847V4.34234H4.88571V5.66234H7.33571V6.37334C7.35551 7.38653 7.09439 8.38542 6.58129 9.25931C6.06818 10.1332 5.32313 10.8479 4.42871 11.3243L5.36871 12.6093C6.04233 12.2514 6.63725 11.7618 7.11821 11.1697C7.59918 10.5776 7.9564 9.89503 8.16871 9.16234C8.62474 10.5309 9.60312 11.6639 10.8907 12.3143L11.7907 11.0443C10.9294 10.6083 10.2076 9.93944 9.70738 9.11376C9.20713 8.28808 8.94845 7.33866 8.96071 6.37334ZM12.1857 14.7733H13.8107V8.98834H15.5107V7.63034H13.8107V3.22534H12.1857V14.7733Z" fill="#9F7BFF"/>
</svg>
