<svg width="19" height="19" viewBox="0 0 19 19" fill="none" xmlns="http://www.w3.org/2000/svg">
<path d="M2.49989 0.5H16.5001C17.0305 0.5 17.5392 0.710703 17.9142 1.08576C18.2893 1.46081 18.5 1.96949 18.5 2.49989V16.5001C18.5 17.0305 18.2893 17.5392 17.9142 17.9142C17.5392 18.2893 17.0305 18.5 16.5001 18.5H2.49989C1.96949 18.5 1.46081 18.2893 1.08576 17.9142C0.710703 17.5392 0.5 17.0305 0.5 16.5001L0.5 2.49989C0.5 1.96949 0.710703 1.46081 1.08576 1.08576C1.46081 0.710703 1.96949 0.5 2.49989 0.5V0.5Z" fill="#F5F6F8"/>
<path d="M14.3891 4.02795H12.9216V8.23711H11.9988V4.18427H10.5399V11.3085C8.89243 10.4558 8.32685 8.64069 8.32685 6.73459V6.38216H9.99895V5.15911H4.98832V6.38216H6.83569V6.7308C6.83001 8.82732 6.27674 10.7637 4.60938 11.7016L5.55674 12.8802C6.60092 12.2018 7.3384 11.142 7.61159 9.92722C7.94221 11.0146 8.68147 11.9314 9.67401 12.4851L10.5399 11.335V14.468H11.9988V9.48859H12.9254V14.9729H14.3928L14.3891 4.02795Z" fill="#2FBBB2"/>
</svg>
