<svg width="12" height="14" viewBox="0 0 12 14" fill="none" xmlns="http://www.w3.org/2000/svg">
<g clip-path="url(#clip0_2739_6339)">
<path d="M12 5.81216V5.56335C12 4.60546 11.2286 3.82173 10.2857 3.82173H8.70612C8.91429 3.70977 9.1102 3.5978 9.2449 3.49828C9.58776 3.2246 9.80816 2.82651 9.86939 2.37866C9.93061 1.93082 9.80816 1.49541 9.53878 1.14709C9.26939 0.79876 8.87755 0.574837 8.43673 0.512636C7.99592 0.450435 7.56735 0.574837 7.22449 0.848521C7.00408 1.02268 6.39184 1.69445 6.01224 2.41599C5.97551 2.34134 5.95102 2.2667 5.90204 2.17962C5.58367 1.64469 5.14286 1.09732 4.81224 0.836081C4.10204 0.263832 3.06122 0.400674 2.49796 1.12221C2.22857 1.47053 2.10612 1.91838 2.1551 2.35378C2.20408 2.80163 2.42449 3.18728 2.77959 3.4734C2.91429 3.57292 3.09796 3.69733 3.31837 3.79685H1.71429C0.771429 3.79685 0 4.58058 0 5.53847V5.78728C0 6.27244 0.195918 6.72029 0.514286 7.0313C0.195918 7.3423 0 7.79015 0 8.27532V8.52412C0 9.00929 0.195918 9.45713 0.514286 9.76814C0.195918 10.0791 0 10.527 0 11.0122V11.261C0 12.2189 0.771429 13.0026 1.71429 13.0026H5.49796C5.53469 13.2763 5.74286 13.4753 6 13.4753C6.25714 13.4753 6.46531 13.2638 6.50204 13.0026H10.2857C11.2286 13.0026 12 12.2189 12 11.261V11.0122C12 10.527 11.8041 10.0791 11.4857 9.76814C11.8041 9.45713 12 9.00929 12 8.52412V8.27532C12 7.79015 11.8041 7.3423 11.4857 7.0313C11.8041 6.72029 12 6.27244 12 5.78728V5.81216ZM7.82449 1.64469C8.11837 1.42077 8.53469 1.47053 8.7551 1.75665C8.86531 1.8935 8.91429 2.0801 8.8898 2.25426C8.86531 2.42843 8.77959 2.59015 8.63265 2.70211C8.1551 3.07532 6.94286 3.51072 6.67347 3.4734L6.64898 3.44852C6.62449 3.12508 7.32245 2.00546 7.8 1.63225L7.82449 1.64469ZM3.26939 1.75665C3.37959 1.61981 3.53878 1.52029 3.7102 1.49541C3.73469 1.49541 3.75918 1.49541 3.79592 1.49541C3.94286 1.49541 4.0898 1.54517 4.2 1.64469C4.67755 2.0179 5.36327 3.12508 5.41225 3.37388L5.38776 3.39876C5.06939 3.49828 3.85714 3.07532 3.37959 2.70211C3.08571 2.46575 3.03673 2.04278 3.26939 1.74421V1.75665ZM0.979592 5.81216V5.56335C0.979592 5.15283 1.3102 4.81694 1.71429 4.81694H4.07755L3.58776 5.35187C3.40408 5.55091 3.41633 5.86192 3.61225 6.06096C3.7102 6.14804 3.83265 6.1978 3.94286 6.1978C4.07755 6.1978 4.2 6.14804 4.29796 6.03608L5.41225 4.82938H5.46122V6.57101H1.71429C1.3102 6.57101 0.979592 6.23513 0.979592 5.8246V5.81216ZM0.979592 8.549V8.3002C0.979592 7.88967 1.3102 7.55378 1.71429 7.55378H5.48571V9.29541H1.71429C1.3102 9.29541 0.979592 8.95953 0.979592 8.549ZM0.979592 11.2858V11.037C0.979592 10.6265 1.3102 10.2906 1.71429 10.2906H5.48571V12.0323H1.71429C1.3102 12.0323 0.979592 11.6964 0.979592 11.2858ZM11.0204 11.037V11.2858C11.0204 11.6964 10.6898 12.0323 10.2857 12.0323H6.51429V10.2906H10.2857C10.6898 10.2906 11.0204 10.6265 11.0204 11.037ZM11.0204 8.3002V8.549C11.0204 8.95953 10.6898 9.29541 10.2857 9.29541H6.51429V7.55378H10.2857C10.6898 7.55378 11.0204 7.88967 11.0204 8.3002ZM6.52653 6.55857V4.81694H6.57551L7.6898 6.02364C7.78776 6.12316 7.92245 6.18536 8.0449 6.18536C8.16735 6.18536 8.2898 6.1356 8.37551 6.04852C8.57143 5.86192 8.58367 5.55091 8.4 5.33943L7.9102 4.8045H10.2735C10.6776 4.8045 11.0082 5.14039 11.0082 5.55091V5.79972C11.0082 6.21024 10.6776 6.54613 10.2735 6.54613H6.50204L6.52653 6.55857Z" fill="#61708B"/>
</g>
<defs>
<clipPath id="clip0_2739_6339">
<rect width="12" height="13" fill="white" transform="translate(0 0.500244)"/>
</clipPath>
</defs>
</svg>
