<svg width="10" height="11" viewBox="0 0 10 11" fill="none" xmlns="http://www.w3.org/2000/svg">
<path d="M5.45508 0.5C5.85064 0.5 6.23732 0.617298 6.56622 0.837061C6.89512 1.05682 7.15146 1.36918 7.30284 1.73463C7.45421 2.10009 7.49382 2.50222 7.41665 2.89018C7.33948 3.27814 7.149 3.63451 6.86929 3.91421C6.58959 4.19392 6.23322 4.3844 5.84526 4.46157C5.4573 4.53874 5.05516 4.49913 4.68971 4.34776C4.32426 4.19638 4.0119 3.94004 3.79214 3.61114C3.57238 3.28224 3.45508 2.89556 3.45508 2.5C3.45508 1.96957 3.66579 1.46086 4.04086 1.08579C4.41594 0.710714 4.92465 0.5 5.45508 0.5" fill="#A4ABBB"/>
<path d="M10.0001 10.5C9.44413 7.79999 7.62313 5.81299 5.45513 5.81299C3.28713 5.81299 1.46613 7.79999 0.911133 10.5H10.0001Z" fill="#A4ABBB"/>
</svg>
