<svg width="10" height="10" viewBox="0 0 10 10" fill="none" xmlns="http://www.w3.org/2000/svg">
<path d="M9.04172 8.39384L1.76648 0.757089C1.54326 0.522774 1.18135 0.522774 0.958125 0.757089C0.734902 0.991403 0.734902 1.3713 0.958125 1.60562L8.23336 9.24237C8.45659 9.47668 8.8185 9.47668 9.04172 9.24237C9.26495 9.00806 9.26495 8.62816 9.04172 8.39384Z" fill="#A4ABBB"/>
<path d="M1.76638 9.2429L9.04162 1.60615C9.26484 1.37183 9.26484 0.991935 9.04162 0.757621C8.8184 0.523306 8.45648 0.523306 8.23326 0.757621L0.958021 8.39437C0.734798 8.62869 0.734798 9.00859 0.958021 9.2429C1.18124 9.47722 1.54316 9.47722 1.76638 9.2429Z" fill="#A4ABBB"/>
</svg> 