<svg width="31" height="20" viewBox="0 0 31 20" fill="none" xmlns="http://www.w3.org/2000/svg">
<path d="M1.71973 10C1.71973 4.89137 5.86109 0.75 10.9697 0.75H20.9697C26.0784 0.75 30.2197 4.89137 30.2197 10C30.2197 15.1086 26.0784 19.25 20.9697 19.25H10.9697C5.86109 19.25 1.71973 15.1086 1.71973 10Z" fill="white" stroke="#EAECF1" stroke-width="1.5"/>
<path d="M20.9616 9.54968L17.8738 6.46195C17.6215 6.20962 17.2165 6.20962 16.9708 6.46195C16.7251 6.71428 16.7184 7.11934 16.9708 7.36503L18.9695 9.36375L11.4426 9.36375C11.0907 9.36375 10.8052 9.64928 10.8052 10.0012C10.8052 10.3531 11.0907 10.6387 11.4426 10.6387L18.9628 10.6387L16.9641 12.6374C16.7118 12.8897 16.7118 13.2948 16.9641 13.5405C17.2165 13.7862 17.6215 13.7928 17.8672 13.5405L20.9483 10.4594C21.0745 10.3332 21.1342 10.1672 21.1342 10.0079C21.1342 9.84185 21.0745 9.68248 20.9483 9.55632L20.9616 9.54968Z" fill="#8391AC"/>
</svg>
