<svg width="12" height="12" viewBox="0 0 12 12" fill="none" xmlns="http://www.w3.org/2000/svg">
<path d="M4.97973 8.89199L1.61873 5.55299L2.68673 4.49699L4.97873 6.77099L9.54373 2.24199C8.59233 1.22531 7.29074 0.60733 5.90156 0.51272C4.51238 0.41811 3.13902 0.853916 2.05857 1.73221C0.978119 2.61051 0.271007 3.86591 0.0798993 5.24513C-0.111208 6.62435 0.227915 8.02472 1.02885 9.16371C1.82978 10.3027 3.0329 11.0955 4.39547 11.3822C5.75804 11.6689 7.17862 11.4281 8.37061 10.7084C9.56259 9.98869 10.4373 8.84369 10.8181 7.5044C11.199 6.1651 11.0577 4.73119 10.4227 3.49199L4.97973 8.89199Z" fill="#D7DAE2"/>
</svg>
